<mxfile host="app.diagrams.net" agent="Mozilla/5.0 (Windows NT 10.0; Win64; x64) AppleWebKit/537.36 (KHTML, like Gecko) Chrome/127.0.0.0 Safari/537.36 OPR/113.0.0.0" version="24.7.14">
  <diagram name="Página-1" id="TQZprnfnf7Vf5yxd3xPg">
    <mxGraphModel dx="1079" dy="443" grid="1" gridSize="10" guides="1" tooltips="1" connect="1" arrows="1" fold="1" page="1" pageScale="1" pageWidth="827" pageHeight="1169" math="0" shadow="0">
      <root>
        <mxCell id="0" />
        <mxCell id="1" parent="0" />
        <mxCell id="3hQ2opuRbN6ydnOgknrT-1" value="USUARIO" style="shape=umlActor;verticalLabelPosition=bottom;verticalAlign=top;html=1;outlineConnect=0;" vertex="1" parent="1">
          <mxGeometry x="50" y="190" width="60" height="120" as="geometry" />
        </mxCell>
        <mxCell id="3hQ2opuRbN6ydnOgknrT-2" value="&quot;SCAV&quot; Sistema de Control&amp;nbsp;&lt;div&gt;de Acceso Vehicular&lt;/div&gt;" style="shape=umlActor;verticalLabelPosition=bottom;verticalAlign=top;html=1;outlineConnect=0;" vertex="1" parent="1">
          <mxGeometry x="490" y="190" width="70" height="120" as="geometry" />
        </mxCell>
        <mxCell id="3hQ2opuRbN6ydnOgknrT-4" value="Gestión de usuarios" style="swimlane;whiteSpace=wrap;html=1;" vertex="1" parent="1">
          <mxGeometry x="160" y="100" width="260" height="280" as="geometry" />
        </mxCell>
        <mxCell id="3hQ2opuRbN6ydnOgknrT-7" value="Registrar en la aplicación" style="ellipse;whiteSpace=wrap;html=1;" vertex="1" parent="3hQ2opuRbN6ydnOgknrT-4">
          <mxGeometry x="20" y="40" width="220" height="40" as="geometry" />
        </mxCell>
        <mxCell id="3hQ2opuRbN6ydnOgknrT-11" value="Verificar matricula activa" style="ellipse;whiteSpace=wrap;html=1;" vertex="1" parent="3hQ2opuRbN6ydnOgknrT-4">
          <mxGeometry x="20" y="120" width="220" height="40" as="geometry" />
        </mxCell>
        <mxCell id="3hQ2opuRbN6ydnOgknrT-12" value="Generar codigo QR" style="ellipse;whiteSpace=wrap;html=1;" vertex="1" parent="3hQ2opuRbN6ydnOgknrT-4">
          <mxGeometry x="20" y="200" width="220" height="40" as="geometry" />
        </mxCell>
        <mxCell id="3hQ2opuRbN6ydnOgknrT-8" value="ADMINISTRADOR" style="shape=umlActor;verticalLabelPosition=bottom;verticalAlign=top;html=1;outlineConnect=0;" vertex="1" parent="1">
          <mxGeometry x="40" y="920" width="70" height="120" as="geometry" />
        </mxCell>
        <mxCell id="3hQ2opuRbN6ydnOgknrT-24" value="" style="endArrow=none;html=1;rounded=0;entryX=0;entryY=0.5;entryDx=0;entryDy=0;exitX=0.5;exitY=0.5;exitDx=0;exitDy=0;exitPerimeter=0;" edge="1" parent="1" source="3hQ2opuRbN6ydnOgknrT-1" target="3hQ2opuRbN6ydnOgknrT-7">
          <mxGeometry width="50" height="50" relative="1" as="geometry">
            <mxPoint x="180" y="250" as="sourcePoint" />
            <mxPoint x="230" y="200" as="targetPoint" />
          </mxGeometry>
        </mxCell>
        <mxCell id="3hQ2opuRbN6ydnOgknrT-26" value="" style="endArrow=none;html=1;rounded=0;entryX=0.5;entryY=0.5;entryDx=0;entryDy=0;exitX=1;exitY=0.5;exitDx=0;exitDy=0;entryPerimeter=0;" edge="1" parent="1" source="3hQ2opuRbN6ydnOgknrT-11" target="3hQ2opuRbN6ydnOgknrT-2">
          <mxGeometry width="50" height="50" relative="1" as="geometry">
            <mxPoint x="400" y="235" as="sourcePoint" />
            <mxPoint x="525" y="265" as="targetPoint" />
          </mxGeometry>
        </mxCell>
        <mxCell id="3hQ2opuRbN6ydnOgknrT-27" value="" style="endArrow=none;html=1;rounded=0;entryX=0.5;entryY=0.5;entryDx=0;entryDy=0;exitX=1;exitY=0.5;exitDx=0;exitDy=0;entryPerimeter=0;" edge="1" parent="1" source="3hQ2opuRbN6ydnOgknrT-12" target="3hQ2opuRbN6ydnOgknrT-2">
          <mxGeometry width="50" height="50" relative="1" as="geometry">
            <mxPoint x="400" y="310" as="sourcePoint" />
            <mxPoint x="525" y="320" as="targetPoint" />
          </mxGeometry>
        </mxCell>
        <mxCell id="3hQ2opuRbN6ydnOgknrT-50" value="USUARIO" style="shape=umlActor;verticalLabelPosition=bottom;verticalAlign=top;html=1;outlineConnect=0;" vertex="1" parent="1">
          <mxGeometry x="60" y="580" width="60" height="120" as="geometry" />
        </mxCell>
        <mxCell id="3hQ2opuRbN6ydnOgknrT-51" value="&quot;SCAV&quot; Sistema de Control&amp;nbsp;&lt;div&gt;de Acceso Vehicular&lt;/div&gt;" style="shape=umlActor;verticalLabelPosition=bottom;verticalAlign=top;html=1;outlineConnect=0;" vertex="1" parent="1">
          <mxGeometry x="500" y="580" width="70" height="120" as="geometry" />
        </mxCell>
        <mxCell id="3hQ2opuRbN6ydnOgknrT-52" value="Control de acceso vehicular" style="swimlane;whiteSpace=wrap;html=1;startSize=23;" vertex="1" parent="1">
          <mxGeometry x="170" y="490" width="260" height="280" as="geometry" />
        </mxCell>
        <mxCell id="3hQ2opuRbN6ydnOgknrT-53" value="Mostrar QR en lector" style="ellipse;whiteSpace=wrap;html=1;" vertex="1" parent="3hQ2opuRbN6ydnOgknrT-52">
          <mxGeometry x="20" y="40" width="220" height="40" as="geometry" />
        </mxCell>
        <mxCell id="3hQ2opuRbN6ydnOgknrT-54" value="Validar QR" style="ellipse;whiteSpace=wrap;html=1;" vertex="1" parent="3hQ2opuRbN6ydnOgknrT-52">
          <mxGeometry x="20" y="120" width="220" height="40" as="geometry" />
        </mxCell>
        <mxCell id="3hQ2opuRbN6ydnOgknrT-55" value="Levantar barrera de acceso" style="ellipse;whiteSpace=wrap;html=1;" vertex="1" parent="3hQ2opuRbN6ydnOgknrT-52">
          <mxGeometry x="20" y="200" width="220" height="40" as="geometry" />
        </mxCell>
        <mxCell id="3hQ2opuRbN6ydnOgknrT-56" value="" style="endArrow=none;html=1;rounded=0;entryX=0;entryY=0.5;entryDx=0;entryDy=0;exitX=0.5;exitY=0.5;exitDx=0;exitDy=0;exitPerimeter=0;" edge="1" parent="1" source="3hQ2opuRbN6ydnOgknrT-50" target="3hQ2opuRbN6ydnOgknrT-53">
          <mxGeometry width="50" height="50" relative="1" as="geometry">
            <mxPoint x="190" y="640" as="sourcePoint" />
            <mxPoint x="240" y="590" as="targetPoint" />
          </mxGeometry>
        </mxCell>
        <mxCell id="3hQ2opuRbN6ydnOgknrT-57" value="" style="endArrow=none;html=1;rounded=0;entryX=0.5;entryY=0.5;entryDx=0;entryDy=0;exitX=1;exitY=0.5;exitDx=0;exitDy=0;entryPerimeter=0;" edge="1" parent="1" source="3hQ2opuRbN6ydnOgknrT-54" target="3hQ2opuRbN6ydnOgknrT-51">
          <mxGeometry width="50" height="50" relative="1" as="geometry">
            <mxPoint x="410" y="625" as="sourcePoint" />
            <mxPoint x="535" y="655" as="targetPoint" />
          </mxGeometry>
        </mxCell>
        <mxCell id="3hQ2opuRbN6ydnOgknrT-58" value="" style="endArrow=none;html=1;rounded=0;entryX=0.5;entryY=0.5;entryDx=0;entryDy=0;exitX=1;exitY=0.5;exitDx=0;exitDy=0;entryPerimeter=0;" edge="1" parent="1" source="3hQ2opuRbN6ydnOgknrT-55" target="3hQ2opuRbN6ydnOgknrT-51">
          <mxGeometry width="50" height="50" relative="1" as="geometry">
            <mxPoint x="410" y="700" as="sourcePoint" />
            <mxPoint x="535" y="710" as="targetPoint" />
          </mxGeometry>
        </mxCell>
        <mxCell id="3hQ2opuRbN6ydnOgknrT-60" value="&quot;SCAV&quot; Sistema de Control&amp;nbsp;&lt;div&gt;de Acceso Vehicular&lt;/div&gt;" style="shape=umlActor;verticalLabelPosition=bottom;verticalAlign=top;html=1;outlineConnect=0;" vertex="1" parent="1">
          <mxGeometry x="500" y="920" width="70" height="120" as="geometry" />
        </mxCell>
        <mxCell id="3hQ2opuRbN6ydnOgknrT-61" value="Supervisión y monitoreo de accesos" style="swimlane;whiteSpace=wrap;html=1;startSize=23;" vertex="1" parent="1">
          <mxGeometry x="170" y="830" width="260" height="280" as="geometry" />
        </mxCell>
        <mxCell id="3hQ2opuRbN6ydnOgknrT-62" value="Supervisar accesos en tiempo real" style="ellipse;whiteSpace=wrap;html=1;" vertex="1" parent="3hQ2opuRbN6ydnOgknrT-61">
          <mxGeometry x="20" y="40" width="220" height="40" as="geometry" />
        </mxCell>
        <mxCell id="3hQ2opuRbN6ydnOgknrT-63" value="Revisar accesos históricos" style="ellipse;whiteSpace=wrap;html=1;" vertex="1" parent="3hQ2opuRbN6ydnOgknrT-61">
          <mxGeometry x="20" y="120" width="220" height="40" as="geometry" />
        </mxCell>
        <mxCell id="3hQ2opuRbN6ydnOgknrT-64" value="Tomar acciones en caso de incidente" style="ellipse;whiteSpace=wrap;html=1;" vertex="1" parent="3hQ2opuRbN6ydnOgknrT-61">
          <mxGeometry x="20" y="200" width="220" height="40" as="geometry" />
        </mxCell>
        <mxCell id="3hQ2opuRbN6ydnOgknrT-65" value="" style="endArrow=none;html=1;rounded=0;entryX=0;entryY=0.5;entryDx=0;entryDy=0;exitX=0.5;exitY=0.5;exitDx=0;exitDy=0;exitPerimeter=0;" edge="1" parent="1" source="3hQ2opuRbN6ydnOgknrT-8" target="3hQ2opuRbN6ydnOgknrT-62">
          <mxGeometry width="50" height="50" relative="1" as="geometry">
            <mxPoint x="90" y="980" as="sourcePoint" />
            <mxPoint x="240" y="930" as="targetPoint" />
          </mxGeometry>
        </mxCell>
        <mxCell id="3hQ2opuRbN6ydnOgknrT-66" value="" style="endArrow=none;html=1;rounded=0;entryX=0.5;entryY=0.5;entryDx=0;entryDy=0;exitX=1;exitY=0.5;exitDx=0;exitDy=0;entryPerimeter=0;" edge="1" parent="1" source="3hQ2opuRbN6ydnOgknrT-63" target="3hQ2opuRbN6ydnOgknrT-60">
          <mxGeometry width="50" height="50" relative="1" as="geometry">
            <mxPoint x="410" y="965" as="sourcePoint" />
            <mxPoint x="535" y="995" as="targetPoint" />
          </mxGeometry>
        </mxCell>
        <mxCell id="3hQ2opuRbN6ydnOgknrT-67" value="" style="endArrow=none;html=1;rounded=0;entryX=0.5;entryY=0.5;entryDx=0;entryDy=0;exitX=1;exitY=0.5;exitDx=0;exitDy=0;entryPerimeter=0;" edge="1" parent="1" source="3hQ2opuRbN6ydnOgknrT-64" target="3hQ2opuRbN6ydnOgknrT-60">
          <mxGeometry width="50" height="50" relative="1" as="geometry">
            <mxPoint x="410" y="1040" as="sourcePoint" />
            <mxPoint x="535" y="1050" as="targetPoint" />
          </mxGeometry>
        </mxCell>
        <mxCell id="3hQ2opuRbN6ydnOgknrT-68" value="" style="endArrow=none;html=1;rounded=0;entryX=0;entryY=0.5;entryDx=0;entryDy=0;exitX=0.5;exitY=0.5;exitDx=0;exitDy=0;exitPerimeter=0;" edge="1" parent="1" source="3hQ2opuRbN6ydnOgknrT-8" target="3hQ2opuRbN6ydnOgknrT-63">
          <mxGeometry width="50" height="50" relative="1" as="geometry">
            <mxPoint x="80" y="980" as="sourcePoint" />
            <mxPoint x="200" y="900" as="targetPoint" />
          </mxGeometry>
        </mxCell>
        <mxCell id="3hQ2opuRbN6ydnOgknrT-70" value="" style="endArrow=none;html=1;rounded=0;entryX=0;entryY=0.5;entryDx=0;entryDy=0;exitX=0.5;exitY=0.5;exitDx=0;exitDy=0;exitPerimeter=0;" edge="1" parent="1" source="3hQ2opuRbN6ydnOgknrT-8" target="3hQ2opuRbN6ydnOgknrT-64">
          <mxGeometry width="50" height="50" relative="1" as="geometry">
            <mxPoint x="105" y="1010" as="sourcePoint" />
            <mxPoint x="220" y="920" as="targetPoint" />
          </mxGeometry>
        </mxCell>
        <mxCell id="3hQ2opuRbN6ydnOgknrT-71" value="" style="endArrow=none;html=1;rounded=0;entryX=0.5;entryY=0.5;entryDx=0;entryDy=0;exitX=1;exitY=0.5;exitDx=0;exitDy=0;entryPerimeter=0;" edge="1" parent="1" source="3hQ2opuRbN6ydnOgknrT-62" target="3hQ2opuRbN6ydnOgknrT-60">
          <mxGeometry width="50" height="50" relative="1" as="geometry">
            <mxPoint x="420" y="980" as="sourcePoint" />
            <mxPoint x="545" y="990" as="targetPoint" />
          </mxGeometry>
        </mxCell>
      </root>
    </mxGraphModel>
  </diagram>
</mxfile>
